<?xml version="1.0" encoding="UTF-8" standalone="no"?>
<svg
   xmlns:dc="http://purl.org/dc/elements/1.1/"
   xmlns:cc="http://creativecommons.org/ns#"
   xmlns:rdf="http://www.w3.org/1999/02/22-rdf-syntax-ns#"
   xmlns:svg="http://www.w3.org/2000/svg"
   xmlns="http://www.w3.org/2000/svg"
   viewBox="350 575 900 200"
   height="800"
   width="1600"
   xml:space="preserve"
   id="svg2"
   version="1.1"><metadata
     id="metadata8"><rdf:RDF><cc:Work
         rdf:about=""><dc:format>image/svg+xml</dc:format><dc:type
           rdf:resource="http://purl.org/dc/dcmitype/StillImage" /></cc:Work></rdf:RDF></metadata><defs
     id="defs6" /><g
     transform="matrix(1.3333333,0,0,-1.3333333,0,1333.3333)"
     id="g10"><g
       transform="scale(0.1)"
       id="g12"><path
         id="path14"
         style="fill:#3871c1;fill-opacity:0;fill-rule:nonzero;stroke:none"
         d="M 12000,0 H 0 V 10000 H 12000 V 0" /><path
         id="path16"
         style="fill:#ffffff;fill-opacity:1;fill-rule:nonzero;stroke:none"
         d="m 3856.92,5106.66 h 794.06 V 4969.4 h -656.49 v -381.96 h 759.68 v -137.26 h -897.25 z m 897.25,835.53 v -137.27 h -759.68 v -541.6 h -137.57 v 678.87 h 897.25" /><path
         id="path18"
         style="fill:#ffffff;fill-opacity:1;fill-rule:nonzero;stroke:none"
         d="m 5180.36,5587.09 c 0,59.68 9.73,112.38 29.17,158.15 19.43,45.74 46.36,84.29 80.75,115.63 34.39,31.33 75.53,55.2 123.35,71.62 47.85,16.41 100.7,24.61 158.52,24.61 41.88,0 82.5,-3.49 121.89,-10.44 39.35,-6.97 77.99,-21.4 115.89,-43.27 v -185 c -19.96,17.9 -38.64,33.3 -56.07,46.24 -17.45,12.92 -35.39,23.88 -53.85,32.83 -18.46,8.95 -38.38,15.66 -59.8,20.14 -21.47,4.48 -46.13,6.71 -74.03,6.71 -18.95,0 -39.13,-2 -60.57,-5.96 -21.45,-3.99 -42.12,-10.45 -62.07,-19.4 -19.95,-8.95 -38.12,-20.4 -54.57,-34.32 -16.45,-13.94 -29.17,-30.35 -38.12,-49.23 -8.01,-16.93 -12.72,-36.07 -14.21,-57.44 -1.49,-21.4 -2.24,-41.04 -2.24,-58.94 0,-34.83 5.22,-64.15 15.7,-88.02 10.45,-23.88 24.89,-45.02 43.35,-63.42 18.43,-18.41 39.87,-34.57 64.3,-48.49 24.43,-13.94 50.58,-28.34 78.51,-43.27 4,-2 13.7,-6.48 29.17,-13.42 15.44,-6.98 33.39,-15.18 53.83,-24.62 20.43,-9.47 41.88,-19.39 64.3,-29.84 22.45,-10.44 42.86,-20.14 61.32,-29.09 18.42,-8.95 33.87,-16.67 46.36,-23.13 12.46,-6.48 18.69,-10.21 18.69,-11.19 v -186.5 c -31.93,23.87 -66.32,44.25 -103.17,61.17 -36.89,16.91 -73.81,33.8 -110.67,50.73 -47.85,21.87 -96.45,46 -145.8,72.36 -49.35,26.34 -93.99,56.44 -133.86,90.26 -39.88,33.81 -72.51,73.12 -97.95,117.88 -25.4,44.76 -38.12,96.98 -38.12,156.66 z m -94.22,-850.44 c 7.98,4.96 18.44,11.42 31.41,19.39 12.94,7.95 25.92,15.9 38.87,23.87 12.94,7.95 24.43,14.66 34.42,20.14 9.93,5.45 15.44,8.21 16.45,8.21 43.83,-73.62 95.45,-131.55 154.75,-173.82 59.31,-42.29 132.86,-63.41 220.59,-63.41 41.88,0 80.75,6.46 116.63,19.4 35.92,12.91 72.77,27.34 110.67,43.27 v -161.14 c -36.89,-12.94 -73.78,-22.15 -110.67,-27.6 -36.89,-5.46 -74.26,-8.21 -112.16,-8.21 -108.65,-1.98 -207.12,23.12 -295.33,75.34 -88.25,52.22 -157.77,126.57 -208.61,223.06 l 2.98,1.5" /><path
         id="path20"
         style="fill:#ffffff;fill-opacity:1;fill-rule:nonzero;stroke:none"
         d="m 6138.92,6241.62 v -978.3 h 137.58 v 978.3 h -137.58" /><path
         id="path22"
         style="fill:#ffffff;fill-opacity:1;fill-rule:nonzero;stroke:none"
         d="m 6138.92,4450.18 h 137.58 v 656.48 h -137.58 v -656.48" /><path
         id="path24"
         style="fill:#ffffff;fill-opacity:1;fill-rule:nonzero;stroke:none"
         d="m 8060.53,5197.68 c 0,-100.49 -18.46,-196.72 -55.33,-288.71 -36.91,-92.01 -87.74,-173.08 -152.53,-243.2 -64.83,-70.12 -141.59,-126.07 -230.3,-167.85 -88.75,-41.78 -184.95,-62.66 -288.62,-62.66 -61.82,0 -121.88,7.97 -180.19,23.87 -58.34,15.9 -113.43,38.28 -165.25,67.14 -51.85,28.84 -99.7,63.9 -143.57,105.18 -43.88,41.27 -82.24,87.78 -115.14,139.51 l 119.64,67.14 c 58.8,-78.58 129.35,-141.74 211.59,-189.48 82.25,-47.75 173.22,-71.62 272.92,-71.62 83.74,0 161.5,16.9 233.28,50.72 71.78,33.81 134.34,79.32 187.67,136.52 53.32,57.19 94.96,123.33 124.88,198.44 29.91,75.09 44.87,153.43 44.87,235 0,81.54 -15.22,159.64 -45.62,234.24 -30.41,74.6 -72.3,140.25 -125.62,196.94 -53.34,56.7 -115.89,101.95 -187.67,135.77 -71.78,33.81 -149.04,50.73 -231.79,50.73 -82.76,0 -160.27,-16.92 -232.54,-50.73 -72.3,-33.82 -135.09,-79.07 -188.42,-135.77 -53.35,-56.69 -95.22,-122.34 -125.62,-196.94 -30.41,-74.6 -45.61,-152.7 -45.61,-234.24 -2.01,-43.79 1.73,-84.3 11.22,-121.61 9.46,-37.3 19.18,-74.85 29.15,-112.64 -24.93,-13.95 -45.11,-25.13 -60.55,-33.57 -15.48,-8.46 -29.43,-15.93 -41.87,-22.38 -12.49,-6.49 -18.22,-9.7 -17.21,-9.7 -19.96,47.75 -34.39,96.72 -43.36,146.96 -8.97,50.22 -13.47,101.2 -13.47,152.94 0,100.45 18.71,196.68 56.08,288.7 37.39,91.98 88.73,172.81 154.03,242.45 65.29,69.61 142.31,125.07 231.04,166.36 88.74,41.26 184.43,61.91 287.13,61.91 102.67,0 198.15,-20.65 286.38,-61.91 88.23,-41.29 164.97,-96.75 230.28,-166.36 65.29,-69.64 116.65,-150.47 154.04,-242.45 37.38,-92.02 56.08,-188.25 56.08,-288.7" /><path
         id="path26"
         style="fill:#ffffff;fill-opacity:1;fill-rule:nonzero;stroke:none"
         d="M 6135.98,6236.54 V 6130.31 H 8588.77 V 4261.52 H 3378.88 v 1565.83 4.64 h 514.61 v 106.23 h -514.61 -92.2 V 5827.35 4136.4 H 8699.57 V 6236.54 H 6135.98" /><path
         id="path28"
         style="fill:#ffffff;fill-opacity:1;fill-rule:nonzero;stroke:none"
         d="m 3454.33,3784.33 h -173.9 c 0,77.15 0,154.63 0,231.78 h 173.9 v -42.38 H 3323.9 v -53.31 h 125.79 v -40.73 H 3323.9 v -52.31 h 130.43 v -43.05" /><path
         id="path30"
         style="fill:#ffffff;fill-opacity:1;fill-rule:nonzero;stroke:none"
         d="m 3518.01,3866.12 c 0,-28.48 20.57,-48.02 46.46,-48.02 25.55,0 47.46,18.55 47.46,48.02 0,28.48 -21.91,47.68 -47.46,47.68 -25.89,0 -46.46,-18.22 -46.46,-47.68 z m 137.06,149.66 v -231.45 h -37.83 l -2.66,22.52 c -12.61,-19.54 -32.85,-26.16 -52.76,-26.16 -48.13,0 -84.31,31.79 -84.31,85.43 0,56.29 35.52,85.43 83.31,85.43 17.26,0 44.14,-9.28 53.76,-26.16 v 90.39 h 40.49" /><path
         id="path32"
         style="fill:#ffffff;fill-opacity:1;fill-rule:nonzero;stroke:none"
         d="m 3799.07,3784.33 v 87.42 c 0,21.52 -11.29,41.06 -33.52,41.06 -21.91,0 -34.85,-19.54 -34.85,-41.06 v -87.42 h -40.49 v 163.58 h 37.5 l 2.99,-19.88 c 8.63,16.57 27.54,22.52 43.14,22.52 19.58,0 39.16,-7.95 48.45,-30.45 14.61,23.17 33.53,29.79 54.77,29.79 46.46,0 69.36,-28.48 69.36,-77.48 v -88.08 h -40.49 v 88.08 c 0,21.52 -8.96,39.74 -30.87,39.74 -21.9,0 -35.5,-18.88 -35.5,-40.4 v -87.42 h -40.49" /><path
         id="path34"
         style="fill:#ffffff;fill-opacity:1;fill-rule:nonzero;stroke:none"
         d="m 4020.37,3865.79 c 0,-24.84 14.93,-48.01 44.46,-48.01 29.55,0 44.48,23.17 44.48,48.01 0,24.5 -17.26,48.34 -44.48,48.34 -29.2,0 -44.46,-23.84 -44.46,-48.34 z m 129.76,0 c 0,-47.02 -32.2,-85.1 -85.3,-85.1 -53.1,0 -84.96,38.08 -84.96,85.1 0,46.69 32.53,85.1 84.64,85.1 52.1,0 85.62,-38.41 85.62,-85.1" /><path
         id="path36"
         style="fill:#ffffff;fill-opacity:1;fill-rule:nonzero;stroke:none"
         d="m 4298.44,3784.33 v 85.43 c 0,24.84 -13.61,43.7 -39.49,43.7 -24.9,0 -41.82,-20.86 -41.82,-45.69 v -83.44 h -40.16 v 163.58 h 36.17 l 2.66,-22.19 c 16.6,16.22 33.19,24.5 53.77,24.5 38.49,0 69.36,-28.81 69.36,-80.12 v -85.77 h -40.49" /><path
         id="path38"
         style="fill:#ffffff;fill-opacity:1;fill-rule:nonzero;stroke:none"
         d="m 4423.85,3993.6 v -46.36 h 45.13 v -34.76 h -45.46 v -70.53 c 0,-15.57 8.63,-23.18 21.24,-23.18 6.3,0 13.6,1.99 19.58,4.97 l 11.28,-34.44 c -11.61,-4.63 -21.24,-6.63 -33.52,-6.95 -35.51,-1.33 -58.74,18.87 -58.74,59.6 v 70.53 h -30.53 v 34.76 h 30.53 v 42.05 l 40.49,4.31" /><path
         id="path40"
         style="fill:#ffffff;fill-opacity:1;fill-rule:nonzero;stroke:none"
         d="m 4532.01,3865.79 c 0,-24.84 14.93,-48.01 44.47,-48.01 29.54,0 44.47,23.17 44.47,48.01 0,24.5 -17.25,48.34 -44.47,48.34 -29.2,0 -44.47,-23.84 -44.47,-48.34 z m 129.76,0 c 0,-47.02 -32.19,-85.1 -85.29,-85.1 -53.1,0 -84.96,38.08 -84.96,85.1 0,46.69 32.52,85.1 84.63,85.1 52.11,0 85.62,-38.41 85.62,-85.1" /><path
         id="path42"
         style="fill:#ffffff;fill-opacity:1;fill-rule:nonzero;stroke:none"
         d="m 4810.08,3784.33 v 85.43 c 0,24.84 -13.61,43.7 -39.49,43.7 -24.9,0 -41.82,-20.86 -41.82,-45.69 v -83.44 h -40.16 v 163.58 h 36.18 l 2.65,-22.19 c 16.6,16.22 33.19,24.5 53.77,24.5 38.49,0 69.36,-28.81 69.36,-80.12 v -85.77 h -40.49" /><path
         id="path44"
         style="fill:#ffffff;fill-opacity:1;fill-rule:nonzero;stroke:none"
         d="m 5098.76,3960.15 c -7.96,13.25 -29.87,25.83 -55.09,25.83 -32.53,0 -48.12,-13.57 -48.12,-30.79 0,-20.2 23.89,-25.83 51.77,-29.14 48.45,-5.95 93.59,-18.54 93.59,-73.84 0,-51.66 -45.8,-73.83 -97.58,-73.83 -47.45,0 -83.96,14.57 -101.22,56.95 l 36.51,18.87 c 10.29,-25.5 37.17,-36.75 65.38,-36.75 27.55,0 53.43,9.6 53.43,34.76 0,21.86 -22.9,30.8 -53.76,34.11 -47.46,5.63 -91.27,18.21 -91.27,70.19 0,47.69 47.13,67.22 89.94,67.55 36.18,0 73.68,-10.26 91.27,-46.03 l -34.85,-17.88" /><path
         id="path46"
         style="fill:#ffffff;fill-opacity:1;fill-rule:nonzero;stroke:none"
         d="m 5312.11,3805.19 c -18.92,-18.54 -38.83,-25.83 -63.06,-25.83 -47.45,0 -86.95,28.48 -86.95,86.43 0,57.95 39.5,86.41 86.95,86.41 23.24,0 41.16,-6.62 59.08,-24.17 l -25.56,-26.81 c -9.62,8.6 -21.57,12.91 -32.85,12.91 -27.22,0 -47.13,-19.86 -47.13,-48.34 0,-31.12 21.24,-47.69 46.46,-47.69 12.95,0 25.89,3.65 35.85,13.59 l 27.21,-26.5" /><path
         id="path48"
         style="fill:#ffffff;fill-opacity:1;fill-rule:nonzero;stroke:none"
         d="m 5367.5,3947.58 2.99,-18.88 c 12.61,20.19 29.53,23.18 46.13,23.18 16.92,0 33.18,-6.63 42.15,-15.56 l -18.26,-35.1 c -8.29,6.95 -15.93,10.59 -29.2,10.59 -21.24,0 -40.82,-11.26 -40.82,-41.38 v -86.1 H 5330 v 163.25 h 37.5" /><path
         id="path50"
         style="fill:#ffffff;fill-opacity:1;fill-rule:nonzero;stroke:none"
         d="m 5597.46,3885 c -2.66,21.19 -19.25,31.77 -42.48,31.77 -21.9,0 -39.82,-10.58 -45.8,-31.77 z m -88.94,-33.45 c 2.65,-20.2 20.24,-34.77 48.78,-34.77 14.94,0 34.52,5.63 43.81,15.23 l 25.89,-25.49 c -17.26,-17.88 -45.47,-26.49 -70.36,-26.49 -56.42,0 -89.94,34.76 -89.94,87.09 0,49.65 33.85,85.42 86.95,85.42 54.76,0 88.95,-33.77 82.64,-100.99 h -127.77" /><path
         id="path52"
         style="fill:#ffffff;fill-opacity:1;fill-rule:nonzero;stroke:none"
         d="m 5790.9,3885 c -2.65,21.19 -19.24,31.77 -42.48,31.77 -21.9,0 -39.82,-10.58 -45.8,-31.77 z m -88.94,-33.45 c 2.65,-20.2 20.25,-34.77 48.79,-34.77 14.93,0 34.51,5.63 43.81,15.23 l 25.88,-25.49 c -17.26,-17.88 -45.46,-26.49 -70.36,-26.49 -56.42,0 -89.94,34.76 -89.94,87.09 0,49.65 33.85,85.42 86.95,85.42 54.77,0 88.95,-33.77 82.64,-100.99 h -127.77" /><path
         id="path54"
         style="fill:#ffffff;fill-opacity:1;fill-rule:nonzero;stroke:none"
         d="m 5981.36,3784.33 v 85.43 c 0,24.84 -13.61,43.7 -39.49,43.7 -24.9,0 -41.82,-20.86 -41.82,-45.69 v -83.44 h -40.16 v 163.58 h 36.17 l 2.66,-22.19 c 16.6,16.22 33.19,24.5 53.77,24.5 38.49,0 69.36,-28.81 69.36,-80.12 v -85.77 h -40.49" /><path
         id="path56"
         style="fill:#ffffff;fill-opacity:1;fill-rule:nonzero;stroke:none"
         d="m 6127,3784.33 v 231.78 h 43.47 V 3784.33 H 6127" /><path
         id="path58"
         style="fill:#ffffff;fill-opacity:1;fill-rule:nonzero;stroke:none"
         d="m 6329.1,3784.33 v 85.43 c 0,24.84 -13.62,43.7 -39.5,43.7 -24.89,0 -41.81,-20.86 -41.81,-45.69 v -83.44 h -40.17 v 163.58 h 36.18 l 2.66,-22.19 c 16.59,16.22 33.18,24.5 53.76,24.5 38.5,0 69.36,-28.81 69.36,-80.12 v -85.77 h -40.48" /><path
         id="path60"
         style="fill:#ffffff;fill-opacity:1;fill-rule:nonzero;stroke:none"
         d="m 6437.24,3866.12 c 0,-28.48 20.58,-48.02 46.47,-48.02 25.54,0 47.45,18.55 47.45,48.02 0,28.48 -21.91,47.68 -47.45,47.68 -25.89,0 -46.47,-18.22 -46.47,-47.68 z m 137.06,149.66 v -231.45 h -37.83 l -2.66,22.52 c -12.6,-19.54 -32.85,-26.16 -52.76,-26.16 -48.13,0 -84.3,31.79 -84.3,85.43 0,56.29 35.51,85.43 83.3,85.43 17.26,0 44.14,-9.28 53.76,-26.16 v 90.39 h 40.49" /><path
         id="path62"
         style="fill:#ffffff;fill-opacity:1;fill-rule:nonzero;stroke:none"
         d="m 6647.28,3947.58 v -85.43 c 0,-24.84 13.61,-43.71 39.5,-43.71 24.89,0 41.82,20.85 41.82,45.69 v 83.45 h 40.15 V 3784 h -36.18 l -2.64,22.19 c -16.94,-16.56 -32.53,-24.5 -55.43,-24.5 -39.16,0 -67.71,29.46 -67.71,80.12 v 85.77 h 40.49" /><path
         id="path64"
         style="fill:#ffffff;fill-opacity:1;fill-rule:nonzero;stroke:none"
         d="m 6911.41,3904.2 c -11.61,10.92 -24.88,14.57 -40.49,14.57 -19.25,0 -29.86,-5.96 -29.86,-16.22 0,-10.6 9.62,-16.57 30.53,-17.88 30.87,-2 70.03,-8.95 70.03,-52.33 0,-28.8 -23.57,-53.63 -70.37,-53.63 -25.88,0 -51.76,4.3 -75.66,29.13 l 19.91,28.81 c 11.61,-12.91 38.17,-22.51 56.42,-22.84 15.26,-0.34 29.54,7.61 29.54,19.53 0,11.26 -9.3,15.9 -32.53,17.21 -30.86,2.33 -67.69,13.58 -67.69,50.67 0,37.74 39.16,50.98 69.02,50.98 25.56,0 44.8,-4.96 63.72,-21.51 l -22.57,-26.49" /><path
         id="path66"
         style="fill:#ffffff;fill-opacity:1;fill-rule:nonzero;stroke:none"
         d="m 7024.56,3993.6 v -46.36 h 45.13 v -34.76 h -45.47 v -70.53 c 0,-15.57 8.63,-23.18 21.24,-23.18 6.3,0 13.61,1.99 19.58,4.97 l 11.28,-34.44 c -11.61,-4.63 -21.24,-6.63 -33.51,-6.95 -35.51,-1.33 -58.74,18.87 -58.74,59.6 v 70.53 h -30.54 v 34.76 h 30.54 v 42.05 l 40.49,4.31" /><path
         id="path68"
         style="fill:#ffffff;fill-opacity:1;fill-rule:nonzero;stroke:none"
         d="m 7137.37,3947.58 2.98,-18.88 c 12.61,20.19 29.54,23.18 46.13,23.18 16.93,0 33.19,-6.63 42.15,-15.56 l -18.25,-35.1 c -8.3,6.95 -15.93,10.59 -29.2,10.59 -21.24,0 -40.83,-11.26 -40.83,-41.38 v -86.1 h -40.49 v 163.25 h 37.51" /><path
         id="path70"
         style="fill:#ffffff;fill-opacity:1;fill-rule:nonzero;stroke:none"
         d="m 7243.86,3948.24 v -163.91 h 40.49 v 163.91 z m 44.14,45.36 c 0,-31.45 -47.78,-31.45 -47.78,0 0,31.46 47.78,31.46 47.78,0" /><path
         id="path72"
         style="fill:#ffffff;fill-opacity:1;fill-rule:nonzero;stroke:none"
         d="m 7444.3,3885 c -2.65,21.19 -19.26,31.77 -42.48,31.77 -21.9,0 -39.83,-10.58 -45.8,-31.77 z m -88.94,-33.45 c 2.65,-20.2 20.24,-34.77 48.78,-34.77 14.94,0 34.52,5.63 43.8,15.23 l 25.89,-25.49 c -17.25,-17.88 -45.47,-26.49 -70.36,-26.49 -56.41,0 -89.93,34.76 -89.93,87.09 0,49.65 33.85,85.42 86.95,85.42 54.76,0 88.94,-33.77 82.64,-100.99 h -127.77" /><path
         id="path74"
         style="fill:#ffffff;fill-opacity:1;fill-rule:nonzero;stroke:none"
         d="m 7621.15,3904.2 c -11.61,10.92 -24.89,14.57 -40.49,14.57 -19.25,0 -29.86,-5.96 -29.86,-16.22 0,-10.6 9.62,-16.57 30.52,-17.88 30.87,-2 70.03,-8.95 70.03,-52.33 0,-28.8 -23.56,-53.63 -70.36,-53.63 -25.89,0 -51.77,4.3 -75.66,29.13 l 19.91,28.81 c 11.61,-12.91 38.16,-22.51 56.42,-22.84 15.26,-0.34 29.54,7.61 29.54,19.53 0,11.26 -9.3,15.9 -32.53,17.21 -30.86,2.33 -67.7,13.58 -67.7,50.67 0,37.74 39.16,50.98 69.03,50.98 25.55,0 44.8,-4.96 63.72,-21.51 l -22.57,-26.49" /><path
         id="path76"
         style="fill:#ffffff;fill-opacity:1;fill-rule:nonzero;stroke:none"
         d="m 7780.07,3897.91 c 1,-38.08 21.58,-78.81 76.33,-78.81 54.77,0 75.34,41.06 76.01,79.14 0.65,39.07 -21.24,82.77 -76.01,82.77 -54.75,0 -77.32,-44.03 -76.33,-83.1 z m 195.47,0.99 c -0.65,-59.93 -37.5,-119.86 -119.14,-119.86 -81.64,0 -119.47,58.6 -119.47,119.53 0,60.92 39.16,122.18 119.47,122.18 79.98,0 119.81,-61.26 119.14,-121.85" /><path
         id="path78"
         style="fill:#ffffff;fill-opacity:1;fill-rule:nonzero;stroke:none"
         d="m 8017.97,3784.33 v 125.49 h -30.53 v 35.43 h 30.53 v 10.93 c 0,43.71 29.53,63.91 62.4,63.91 14.26,0 29.2,-4.63 42.48,-13.25 l -14.93,-30.12 c -8.64,5.62 -16.61,8.6 -24.9,8.6 -13.94,0 -24.56,-9.27 -24.56,-29.14 v -10.93 h 48.13 v -35.43 h -48.13 v -125.49 h -40.49" /><path
         id="path80"
         style="fill:#ffffff;fill-opacity:1;fill-rule:nonzero;stroke:none"
         d="m 8151.69,3784.33 v 125.49 h -30.53 v 35.43 h 30.53 v 10.93 c 0,43.71 29.54,63.91 62.4,63.91 14.26,0 29.2,-4.63 42.48,-13.25 l -14.93,-30.12 c -8.64,5.62 -16.61,8.6 -24.9,8.6 -13.94,0 -24.56,-9.27 -24.56,-29.14 v -10.93 h 48.13 v -35.43 h -48.13 v -125.49 h -40.49" /><path
         id="path82"
         style="fill:#ffffff;fill-opacity:1;fill-rule:nonzero;stroke:none"
         d="m 8268.81,3948.24 v -163.91 h 40.49 v 163.91 z m 44.14,45.36 c 0,-31.45 -47.78,-31.45 -47.78,0 0,31.46 47.78,31.46 47.78,0" /><path
         id="path84"
         style="fill:#ffffff;fill-opacity:1;fill-rule:nonzero;stroke:none"
         d="m 8486.18,3805.19 c -18.92,-18.54 -38.83,-25.83 -63.06,-25.83 -47.46,0 -86.95,28.48 -86.95,86.43 0,57.95 39.49,86.41 86.95,86.41 23.23,0 41.15,-6.62 59.07,-24.17 l -25.55,-26.81 c -9.62,8.6 -21.58,12.91 -32.86,12.91 -27.21,0 -47.12,-19.86 -47.12,-48.34 0,-31.12 21.24,-47.69 46.46,-47.69 12.94,0 25.89,3.65 35.84,13.59 l 27.22,-26.5" /><path
         id="path86"
         style="fill:#ffffff;fill-opacity:1;fill-rule:nonzero;stroke:none"
         d="m 8634.17,3885 c -2.66,21.19 -19.26,31.77 -42.49,31.77 -21.9,0 -39.83,-10.58 -45.8,-31.77 z m -88.95,-33.45 c 2.66,-20.2 20.24,-34.77 48.78,-34.77 14.94,0 34.52,5.63 43.81,15.23 l 25.89,-25.49 c -17.26,-17.88 -45.47,-26.49 -70.37,-26.49 -56.41,0 -89.93,34.76 -89.93,87.09 0,49.65 33.85,85.42 86.96,85.42 54.75,0 88.93,-33.77 82.63,-100.99 h -127.77" /></g></g></svg>