<svg xmlns="http://www.w3.org/2000/svg" width="792" height="155"><g fill="#FFF"><path d="M292.107 108.118l-20.945-26.78-7.2 5.504v21.276h-12.205V49.796h12.205v26.45l26.276-26.45h14.238l-24.913 24.665 26.942 33.657h-14.398zM327.373 108.118V49.796h12.206v58.322h-12.206zM392.566 99.333c2.28 0 4.262-.324 5.929-.981 1.679-.638 3.122-1.485 4.35-2.54a15.467 15.467 0 003.065-3.548 25.197 25.197 0 002.01-4.022l10.631 4.022a32.884 32.884 0 01-3.357 6.151c-1.382 2.026-3.111 3.806-5.167 5.354-2.076 1.549-4.53 2.787-7.393 3.741-2.851.941-6.214 1.426-10.068 1.426-5.056 0-9.431-.751-13.124-2.25-3.698-1.499-6.759-3.602-9.164-6.302-2.416-2.688-4.219-5.872-5.39-9.567-1.178-3.705-1.748-7.743-1.748-12.136 0-4.536.57-8.662 1.748-12.324 1.171-3.668 2.955-6.784 5.322-9.368 2.367-2.597 5.372-4.573 8.996-5.966 3.631-1.394 7.906-2.095 12.82-2.095 3.804 0 7.13.391 9.988 1.195 2.86.813 5.334 1.928 7.404 3.378a20.388 20.388 0 015.174 5.13 25.323 25.323 0 013.214 6.524l-10.762 2.936a13.007 13.007 0 00-1.784-3.586c-.799-1.14-1.815-2.143-3.042-3.029-1.227-.893-2.671-1.594-4.319-2.131-1.653-.545-3.537-.813-5.631-.813-2.955 0-5.496.484-7.615 1.425-2.125.955-3.872 2.312-5.235 4.084-1.37 1.759-2.38 3.872-3.018 6.344-.651 2.472-.979 5.248-.979 8.296 0 3.037.328 5.817.979 8.334.638 2.534 1.66 4.7 3.042 6.536 1.376 1.815 3.148 3.234 5.31 4.249 2.169 1.029 4.771 1.533 7.814 1.533zM481.295 108.118l-20.947-26.78-7.2 5.504v21.276h-12.205V49.796h12.205v26.45l26.288-26.45h14.227l-24.914 24.665 26.947 33.657h-14.401zM568.241 91.476c0 2.95-.589 5.478-1.777 7.591-1.179 2.119-2.801 3.835-4.858 5.167-2.059 1.352-4.441 2.323-7.176 2.947a39.69 39.69 0 01-8.698.938h-29.171V49.796h26.694c3.444 0 6.506.304 9.206.886 2.682.601 4.957 1.499 6.81 2.714 1.853 1.22 3.251 2.732 4.199 4.573.949 1.833 1.438 3.996 1.438 6.479 0 3.314-.93 6.11-2.757 8.39-1.847 2.268-4.646 3.805-8.389 4.609 4.72.551 8.314 2.033 10.78 4.447 2.473 2.419 3.699 5.602 3.699 9.582zm-15.638-25.372c0-2.616-.836-4.475-2.502-5.583-1.674-1.103-4.146-1.661-7.43-1.661h-13.903v14.45h13.99c3.444 0 5.947-.601 7.503-1.803 1.569-1.202 2.342-2.999 2.342-5.403zm3.403 24.417c0-1.542-.317-2.837-.918-3.885a6.851 6.851 0 00-2.51-2.527c-1.054-.638-2.299-1.098-3.717-1.362-1.426-.286-2.956-.417-4.615-.417h-15.479v16.73h15.929c1.6 0 3.093-.131 4.474-.411 1.389-.247 2.573-.704 3.581-1.361 1.005-.645 1.798-1.52 2.38-2.634.576-1.102.875-2.477.875-4.133zM620.893 84.188v23.93H608.73v-23.93l-20.78-34.392h12.794l13.983 24.665 14.153-24.665h12.787l-20.774 34.392zM689.438 59.233v48.885h-12.213V59.233h-18.828v-9.437h49.908v9.437h-18.867zM729.295 108.118V49.796h45.842v9.437H741.5v14.659h31.117v9.423H741.5v15.354h35.336v9.449h-47.541z"/></g><path fill="#BCBDBF" d="M204.151 7.776h2.822V150.1h-2.822z"/><path fill="#29333D" d="M103.484 124.618c2.624 3.164 3.727 6.963 3.07 10.735-.666 3.798-2.401 6.829-4.693 9.109-.201.193-.405.37-.597.57-2.225 2.006-4.898 3.382-7.662 4.192a18.418 18.418 0 01-3.052.664c-1.013.147-2.02.211-3.014.211H87c-.994 0-2.001-.063-3.009-.211a18.258 18.258 0 01-3.054-.664c-5.554-1.629-10.707-5.558-12.534-12.05a15.169 15.169 0 01-.415-1.822 82.993 82.993 0 01-.3-2.13c-.025-.13-.05-.244-.05-.331-.034-.3-.065-.48-.089-.61 1.119-4.176-5.679-13.77-13.237-21.313-5.923-5.904-12.094-10.471-16.518-12.4a12.16 12.16 0 00-2.061-.73c-.641-.141-1.208-.234-1.722-.234-.369 0-.718.044-1.029.131-.151-.021-.368-.037-.699-.124a6.2 6.2 0 01-1.144-.137c-.351-.05-.75-.113-1.227-.187a18.427 18.427 0 01-3.423-.955s0-.023-.022-.023a16.481 16.481 0 01-5.48-3.625c-3.906-3.879-5.886-9.479-5.821-14.678-.065-5.21 1.915-10.793 5.821-14.684a16.637 16.637 0 015.48-3.632l.022-.019a18.001 18.001 0 013.423-.959c1.122-.18 1.858-.286 2.37-.322.331-.082.548-.087.699-.119.311.087.66.125 1.029.125.514 0 1.082-.088 1.722-.237a17.398 17.398 0 002.061-.725c4.424-1.926 10.595-6.48 16.518-12.392 7.528-7.559 14.356-17.167 13.237-21.345.024-.135.055-.327.089-.569 0-.105.025-.217.05-.34.062-.514.176-1.19.3-2.175.111-.614.238-1.202.415-1.777 1.827-6.494 6.979-10.435 12.534-12.052a19.693 19.693 0 013.054-.669 22.608 22.608 0 013.011-.216h.536c.995 0 2.001.08 3.014.217 1.013.148 2.039.354 3.052.669 2.764.799 5.437 2.187 7.662 4.201.192.186.396.359.597.558 2.292 2.292 4.027 5.315 4.693 9.089.657 3.787-.446 7.596-3.07 10.743-.229.26-.467.521-.709.774a16.36 16.36 0 01-3.33 2.727c-1.203.768-2.556 1.424-3.969 1.951-2.506.936-5.272 1.394-8.215 1.394-2.677 0-3.667.025-4.058.025-1.324-.477-3.083-.352-5.118.206-.025 0-.037.018-.037.018-.403.112-.793.242-1.208.396-3.346 1.185-7.289 3.513-11.224 6.586a69.757 69.757 0 00-5.777 5.137 66.915 66.915 0 00-4.006 4.393c-.529.608-1.003 1.215-1.493 1.841-.396.507-.768 1.01-1.118 1.53a8.994 8.994 0 00-.744 1.046c-.752 1.06-1.437 2.125-1.992 3.16a7.517 7.517 0 00-.619 1.066c-.264.464-.478.898-.707 1.357-.306.694-.613 1.363-.858 1.994-.213.571-.415 1.11-.561 1.643h.002a15.33 15.33 0 00-.408 1.766c-.242 1.382-.208 2.577.154 3.563 0 .39-.011 1.405-.011 4.032 0 2.703.011 3.717.011 4.088-.362.968-.396 2.163-.154 3.545.09.57.229 1.142.408 1.785h-.002c.146.524.347 1.059.561 1.629.245.631.552 1.309.858 1.99.229.457.443.904.707 1.361.195.36.38.731.619 1.102a34.725 34.725 0 001.992 3.131c.217.357.478.704.744 1.052.351.504.722 1.024 1.118 1.519.49.621.964 1.238 1.493 1.836a66.95 66.95 0 004.006 4.396 67.808 67.808 0 005.777 5.137c3.935 3.081 7.853 5.368 11.224 6.579.415.164.806.294 1.208.404.012 0 .037 0 .037.02 2.035.564 3.794.675 5.118.221.391 0 1.381.02 4.058.02 2.943 0 5.709.451 8.215 1.376.347.13.7.273 1.041.414 1.029.447 1.999.961 2.928 1.549a15.969 15.969 0 013.33 2.72c.241.222.48.502.708.763z"/><g fill="#97C63D"><path d="M21.611 42.007c-1.794-2.18-2.299-5.594-1.476-9.887 1.035-5.254 4.66-10.763 9.313-14.871a40.958 40.958 0 011.586-1.313c1.614-1.275 3.32-2.378 5.086-3.214.58-.306 1.174-.566 1.763-.788a18.234 18.234 0 013.504-1.046c.653-.112 1.298-.224 1.934-.286.634-.05 1.251-.093 1.824-.093.103 0 .208.037.31.037.341.006.685.032 1.013.068.391.025.756.073 1.105.144.314.073.629.124.915.229.344.074.656.204.957.329.253.11.517.204.756.347.505.265.972.576 1.37.941.225.199.415.384.591.613 1.614 1.978 2.058 5.019 1.28 8.804-1.082 5.317-4.96 11.061-9.845 15.417-1.617 1.43-3.352 2.732-5.121 3.804-.592.359-1.18.683-1.803 1.005-.588.29-1.174.557-1.796.817-1.193.508-2.404.892-3.585 1.115a15.72 15.72 0 01-3.401.377c-2.458 0-4.365-.656-5.722-1.951a3.565 3.565 0 01-.558-.598zM153.559 63.347c3.919 3.865 5.868 9.441 5.809 14.634.059 5.223-1.89 10.824-5.809 14.683a16.294 16.294 0 01-8.934 4.623c-.353.05-.709.1-1.084.137-.372.023-.725.05-1.097.05-2.503 0-4.916-.751-7.088-2.176a15.17 15.17 0 01-2.49-2.026 23.492 23.492 0 01-1.128-1.245c-2.995-3.648-4.662-8.648-4.662-14.021 0-5.409 1.667-10.378 4.662-14.051a16.37 16.37 0 011.128-1.222 15.875 15.875 0 012.49-2.02c2.172-1.425 4.585-2.181 7.088-2.181.372 0 .725.025 1.097.057.375.043.731.075 1.084.124 3.659.632 6.635 2.316 8.934 4.634zM152.928 113.967c1.8 2.17 2.286 5.614 1.44 9.907-.995 5.254-4.625 10.762-9.287 14.874-.511.471-1.035.908-1.595 1.321-1.63 1.245-3.334 2.34-5.056 3.215-.601.297-1.159.564-1.766.788a18.145 18.145 0 01-3.516 1.048c-.657.104-1.298.217-1.949.297-.623.073-1.214.09-1.815.09-2.735 0-4.972-.711-6.421-2.093a8.431 8.431 0 01-.585-.65c-.688-.818-1.168-1.84-1.413-3.011-.161-.711-.232-1.485-.244-2.294 0-.811.071-1.665.204-2.563v-.029c.04-.311.096-.595.152-.889a18.784 18.784 0 011.115-3.585c.248-.614.526-1.208.83-1.799.332-.588.644-1.182 1.004-1.81a36.526 36.526 0 013.819-5.123 31.596 31.596 0 013.074-3.071 33.881 33.881 0 015.133-3.829 54.994 54.994 0 011.794-.987c.607-.311 1.22-.588 1.799-.831a20.002 20.002 0 013.591-1.118c2.448-.505 4.561-.505 6.264 0 .301.066.577.153.827.283a5.96 5.96 0 011.419.768c.019 0 .019 0 .019.027.232.146.418.34.625.493.178.194.373.377.538.571zM103.603 61.65c4.265 4.249 6.948 10.049 6.966 16.356-.019 6.296-2.701 12.088-6.966 16.344a23.062 23.062 0 01-1.662 1.519c-1.14.972-2.388 1.796-3.698 2.547a23.032 23.032 0 01-10.982 2.9 22.928 22.928 0 01-10.97-2.9 27.36 27.36 0 01-3.717-2.547c-.57-.494-1.144-.984-1.664-1.519a22.374 22.374 0 01-1.509-1.666 23.731 23.731 0 01-3.559-5.744 21.925 21.925 0 01-1.583-5.444 12.437 12.437 0 01-.155-1.158 20.944 20.944 0 010-4.661c.034-.389.087-.761.155-1.158a21.928 21.928 0 011.583-5.446c.92-2.095 2.1-4.021 3.559-5.75.477-.589.982-1.14 1.509-1.672.521-.534 1.094-1.023 1.664-1.507a21.925 21.925 0 013.717-2.552c3.29-1.814 7.035-2.869 10.97-2.894 3.928.025 7.68 1.08 10.982 2.894a22.095 22.095 0 013.698 2.552c.593.482 1.135.972 1.662 1.506zM53.441 133.978c.778 3.769.334 6.816-1.28 8.786a5.64 5.64 0 01-.591.65 7.927 7.927 0 01-1.37.955c-.239.117-.502.217-.756.327-.301.113-.613.25-.957.337-.286.094-.601.146-.902.214-.362.063-.728.12-1.118.17-.328.01-.672.037-1.013.05-.102 0-.207.023-.31.023-.573 0-1.19-.036-1.824-.073-.636-.08-1.28-.193-1.934-.297a18.458 18.458 0 01-3.504-1.048 17.792 17.792 0 01-1.763-.788c-1.766-.875-3.472-1.97-5.086-3.215a29.422 29.422 0 01-1.586-1.321c-4.653-4.112-8.278-9.62-9.313-14.874-.824-4.293-.319-7.737 1.476-9.907.183-.193.35-.377.557-.571 1.357-1.288 3.265-1.945 5.722-1.945 1.056 0 2.193.106 3.401.374a19.18 19.18 0 013.585 1.118 17.4 17.4 0 011.796.831c.623.304 1.211.634 1.803.987a33.79 33.79 0 015.121 3.829c4.886 4.316 8.765 10.074 9.846 15.388zM120.719 18.551c.012-.817.083-1.587.244-2.286.245-1.184.725-2.218 1.413-3.049.173-.229.384-.414.585-.613 1.45-1.394 3.686-2.101 6.421-2.101.601 0 1.193.007 1.815.1.651.037 1.292.155 1.949.286 1.18.229 2.354.562 3.516 1.046.607.222 1.165.482 1.766.788 1.722.836 3.426 1.939 5.056 3.214.561.421 1.084.854 1.595 1.313 4.662 4.107 8.292 9.617 9.287 14.871.846 4.293.36 7.708-1.44 9.887-.165.237-.36.422-.54.596-.208.173-.394.354-.625.5l-.019.032c-.456.292-.899.577-1.419.763a6.324 6.324 0 01-.827.279c-1.703.521-3.816.521-6.264 0-1.177-.224-2.37-.607-3.591-1.115-.579-.26-1.192-.527-1.799-.817-.573-.322-1.181-.646-1.794-1.005a36.106 36.106 0 01-5.133-3.804c-1.072-.985-2.122-2.015-3.074-3.086a35.884 35.884 0 01-3.819-5.135c-.36-.614-.672-1.222-1.004-1.798-.304-.594-.566-1.202-.83-1.809a18.649 18.649 0 01-1.115-3.575c-.056-.304-.112-.583-.152-.898v-.019a17.762 17.762 0 01-.202-2.565z"/></g><path fill="#FFF" d="M103.484 124.618c2.624 3.164 3.727 6.963 3.07 10.735-.666 3.798-2.401 6.829-4.693 9.109-.201.193-.405.37-.597.57-2.225 2.006-4.898 3.382-7.662 4.192a18.418 18.418 0 01-3.052.664c-1.013.147-2.02.211-3.014.211H87c-.994 0-2.001-.063-3.009-.211a18.258 18.258 0 01-3.054-.664c-5.554-1.629-10.707-5.558-12.534-12.05a15.169 15.169 0 01-.415-1.822 82.993 82.993 0 01-.3-2.13c-.025-.13-.05-.244-.05-.331-.034-.3-.065-.48-.089-.61 1.119-4.176-5.679-13.77-13.237-21.313-5.923-5.904-12.094-10.471-16.518-12.4a12.16 12.16 0 00-2.061-.73c-.641-.141-1.208-.234-1.722-.234-.369 0-.718.044-1.029.131-.151-.021-.368-.037-.699-.124a6.2 6.2 0 01-1.144-.137c-.351-.05-.75-.113-1.227-.187a18.427 18.427 0 01-3.423-.955s0-.023-.022-.023a16.481 16.481 0 01-5.48-3.625c-3.906-3.879-5.886-9.479-5.821-14.678-.065-5.21 1.915-10.793 5.821-14.684a16.637 16.637 0 015.48-3.632l.022-.019a18.001 18.001 0 013.423-.959c1.122-.18 1.858-.286 2.37-.322.331-.082.548-.087.699-.119.311.087.66.125 1.029.125.514 0 1.082-.088 1.722-.237a17.398 17.398 0 002.061-.725c4.424-1.926 10.595-6.48 16.518-12.392 7.528-7.559 14.356-17.167 13.237-21.345.024-.135.055-.327.089-.569 0-.105.025-.217.05-.34.062-.514.176-1.19.3-2.175.111-.614.238-1.202.415-1.777 1.827-6.494 6.979-10.435 12.534-12.052a19.693 19.693 0 013.054-.669 22.608 22.608 0 013.011-.216h.536c.995 0 2.001.08 3.014.217 1.013.148 2.039.354 3.052.669 2.764.799 5.437 2.187 7.662 4.201.192.186.396.359.597.558 2.292 2.292 4.027 5.315 4.693 9.089.657 3.787-.446 7.596-3.07 10.743-.229.26-.467.521-.709.774a16.36 16.36 0 01-3.33 2.727c-1.203.768-2.556 1.424-3.969 1.951-2.506.936-5.272 1.394-8.215 1.394-2.677 0-3.667.025-4.058.025-1.324-.477-3.083-.352-5.118.206-.025 0-.037.018-.037.018-.403.112-.793.242-1.208.396-3.346 1.185-7.289 3.513-11.224 6.586a69.757 69.757 0 00-5.777 5.137 66.915 66.915 0 00-4.006 4.393c-.529.608-1.003 1.215-1.493 1.841-.396.507-.768 1.01-1.118 1.53a8.994 8.994 0 00-.744 1.046c-.752 1.06-1.437 2.125-1.992 3.16a7.517 7.517 0 00-.619 1.066c-.264.464-.478.898-.707 1.357-.306.694-.613 1.363-.858 1.994-.213.571-.415 1.11-.561 1.643h.002a15.33 15.33 0 00-.408 1.766c-.242 1.382-.208 2.577.154 3.563 0 .39-.011 1.405-.011 4.032 0 2.703.011 3.717.011 4.088-.362.968-.396 2.163-.154 3.545.09.57.229 1.142.408 1.785h-.002c.146.524.347 1.059.561 1.629.245.631.552 1.309.858 1.99.229.457.443.904.707 1.361.195.36.38.731.619 1.102a34.725 34.725 0 001.992 3.131c.217.357.478.704.744 1.052.351.504.722 1.024 1.118 1.519.49.621.964 1.238 1.493 1.836a66.95 66.95 0 004.006 4.396 67.808 67.808 0 005.777 5.137c3.935 3.081 7.853 5.368 11.224 6.579.415.164.806.294 1.208.404.012 0 .037 0 .037.02 2.035.564 3.794.675 5.118.221.391 0 1.381.02 4.058.02 2.943 0 5.709.451 8.215 1.376.347.13.7.273 1.041.414 1.029.447 1.999.961 2.928 1.549a15.969 15.969 0 013.33 2.72c.241.222.48.502.708.763z"/><g fill="#97C63D"><path d="M21.611 42.007c-1.794-2.18-2.299-5.594-1.476-9.887 1.035-5.254 4.66-10.763 9.313-14.871a40.958 40.958 0 011.586-1.313c1.614-1.275 3.32-2.378 5.086-3.214.58-.306 1.174-.566 1.763-.788a18.234 18.234 0 013.504-1.046c.653-.112 1.298-.224 1.934-.286.634-.05 1.251-.093 1.824-.093.103 0 .208.037.31.037.341.006.685.032 1.013.068.391.025.756.073 1.105.144.314.073.629.124.915.229.344.074.656.204.957.329.253.11.517.204.756.347.505.265.972.576 1.37.941.225.199.415.384.591.613 1.614 1.978 2.058 5.019 1.28 8.804-1.082 5.317-4.96 11.061-9.845 15.417-1.617 1.43-3.352 2.732-5.121 3.804-.592.359-1.18.683-1.803 1.005-.588.29-1.174.557-1.796.817-1.193.508-2.404.892-3.585 1.115a15.72 15.72 0 01-3.401.377c-2.458 0-4.365-.656-5.722-1.951a3.565 3.565 0 01-.558-.598zM153.559 63.347c3.919 3.865 5.868 9.441 5.809 14.634.059 5.223-1.89 10.824-5.809 14.683a16.294 16.294 0 01-8.934 4.623c-.353.05-.709.1-1.084.137-.372.023-.725.05-1.097.05-2.503 0-4.916-.751-7.088-2.176a15.17 15.17 0 01-2.49-2.026 23.492 23.492 0 01-1.128-1.245c-2.995-3.648-4.662-8.648-4.662-14.021 0-5.409 1.667-10.378 4.662-14.051a16.37 16.37 0 011.128-1.222 15.875 15.875 0 012.49-2.02c2.172-1.425 4.585-2.181 7.088-2.181.372 0 .725.025 1.097.057.375.043.731.075 1.084.124 3.659.632 6.635 2.316 8.934 4.634zM152.928 113.967c1.8 2.17 2.286 5.614 1.44 9.907-.995 5.254-4.625 10.762-9.287 14.874-.511.471-1.035.908-1.595 1.321-1.63 1.245-3.334 2.34-5.056 3.215-.601.297-1.159.564-1.766.788a18.145 18.145 0 01-3.516 1.048c-.657.104-1.298.217-1.949.297-.623.073-1.214.09-1.815.09-2.735 0-4.972-.711-6.421-2.093a8.431 8.431 0 01-.585-.65c-.688-.818-1.168-1.84-1.413-3.011-.161-.711-.232-1.485-.244-2.294 0-.811.071-1.665.204-2.563v-.029c.04-.311.096-.595.152-.889a18.784 18.784 0 011.115-3.585c.248-.614.526-1.208.83-1.799.332-.588.644-1.182 1.004-1.81a36.526 36.526 0 013.819-5.123 31.596 31.596 0 013.074-3.071 33.881 33.881 0 015.133-3.829 54.994 54.994 0 011.794-.987c.607-.311 1.22-.588 1.799-.831a20.002 20.002 0 013.591-1.118c2.448-.505 4.561-.505 6.264 0 .301.066.577.153.827.283a5.96 5.96 0 011.419.768c.019 0 .019 0 .019.027.232.146.418.34.625.493.178.194.373.377.538.571zM103.603 61.65c4.265 4.249 6.948 10.049 6.966 16.356-.019 6.296-2.701 12.088-6.966 16.344a23.062 23.062 0 01-1.662 1.519c-1.14.972-2.388 1.796-3.698 2.547a23.032 23.032 0 01-10.982 2.9 22.928 22.928 0 01-10.97-2.9 27.36 27.36 0 01-3.717-2.547c-.57-.494-1.144-.984-1.664-1.519a22.374 22.374 0 01-1.509-1.666 23.731 23.731 0 01-3.559-5.744 21.925 21.925 0 01-1.583-5.444 12.437 12.437 0 01-.155-1.158 20.944 20.944 0 010-4.661c.034-.389.087-.761.155-1.158a21.928 21.928 0 011.583-5.446c.92-2.095 2.1-4.021 3.559-5.75.477-.589.982-1.14 1.509-1.672.521-.534 1.094-1.023 1.664-1.507a21.925 21.925 0 013.717-2.552c3.29-1.814 7.035-2.869 10.97-2.894 3.928.025 7.68 1.08 10.982 2.894a22.095 22.095 0 013.698 2.552c.593.482 1.135.972 1.662 1.506zM53.441 133.978c.778 3.769.334 6.816-1.28 8.786a5.64 5.64 0 01-.591.65 7.927 7.927 0 01-1.37.955c-.239.117-.502.217-.756.327-.301.113-.613.25-.957.337-.286.094-.601.146-.902.214-.362.063-.728.12-1.118.17-.328.01-.672.037-1.013.05-.102 0-.207.023-.31.023-.573 0-1.19-.036-1.824-.073-.636-.08-1.28-.193-1.934-.297a18.458 18.458 0 01-3.504-1.048 17.792 17.792 0 01-1.763-.788c-1.766-.875-3.472-1.97-5.086-3.215a29.422 29.422 0 01-1.586-1.321c-4.653-4.112-8.278-9.62-9.313-14.874-.824-4.293-.319-7.737 1.476-9.907.183-.193.35-.377.557-.571 1.357-1.288 3.265-1.945 5.722-1.945 1.056 0 2.193.106 3.401.374a19.18 19.18 0 013.585 1.118 17.4 17.4 0 011.796.831c.623.304 1.211.634 1.803.987a33.79 33.79 0 015.121 3.829c4.886 4.316 8.765 10.074 9.846 15.388zM120.719 18.551c.012-.817.083-1.587.244-2.286.245-1.184.725-2.218 1.413-3.049.173-.229.384-.414.585-.613 1.45-1.394 3.686-2.101 6.421-2.101.601 0 1.193.007 1.815.1.651.037 1.292.155 1.949.286 1.18.229 2.354.562 3.516 1.046.607.222 1.165.482 1.766.788 1.722.836 3.426 1.939 5.056 3.214.561.421 1.084.854 1.595 1.313 4.662 4.107 8.292 9.617 9.287 14.871.846 4.293.36 7.708-1.44 9.887-.165.237-.36.422-.54.596-.208.173-.394.354-.625.5l-.019.032c-.456.292-.899.577-1.419.763a6.324 6.324 0 01-.827.279c-1.703.521-3.816.521-6.264 0-1.177-.224-2.37-.607-3.591-1.115-.579-.26-1.192-.527-1.799-.817-.573-.322-1.181-.646-1.794-1.005a36.106 36.106 0 01-5.133-3.804c-1.072-.985-2.122-2.015-3.074-3.086a35.884 35.884 0 01-3.819-5.135c-.36-.614-.672-1.222-1.004-1.798-.304-.594-.566-1.202-.83-1.809a18.649 18.649 0 01-1.115-3.575c-.056-.304-.112-.583-.152-.898v-.019a17.762 17.762 0 01-.202-2.565z"/></g></svg>